<?xml version="1.0" encoding="UTF-8" standalone="no"?>
<!-- Generator: Adobe Illustrator 16.0.0, SVG Export Plug-In . SVG Version: 6.00 Build 0)  -->

<svg
   xmlns:dc="http://purl.org/dc/elements/1.1/"
   xmlns:cc="http://creativecommons.org/ns#"
   xmlns:rdf="http://www.w3.org/1999/02/22-rdf-syntax-ns#"
   xmlns:svg="http://www.w3.org/2000/svg"
   xmlns="http://www.w3.org/2000/svg"
   xmlns:sodipodi="http://sodipodi.sourceforge.net/DTD/sodipodi-0.dtd"
   xmlns:inkscape="http://www.inkscape.org/namespaces/inkscape"
   version="1.1"
   id="Capa_1"
   x="0px"
   y="0px"
   width="400px"
   height="400px"
   viewBox="0 0 400 400"
   style="enable-background:new 0 0 400 400;"
   xml:space="preserve"
   inkscape:version="0.91 r13725"
   sodipodi:docname="cancel.svg"
   inkscape:export-filename="C:\D\TCIABrowser\TCIABrowser\Resources\Icons\cancel.png"
   inkscape:export-xdpi="11.25"
   inkscape:export-ydpi="11.25"><metadata
     id="metadata45"><rdf:RDF><cc:Work
         rdf:about=""><dc:format>image/svg+xml</dc:format><dc:type
           rdf:resource="http://purl.org/dc/dcmitype/StillImage" /></cc:Work></rdf:RDF></metadata><defs
     id="defs43" /><sodipodi:namedview
     pagecolor="#ffffff"
     bordercolor="#666666"
     borderopacity="1"
     objecttolerance="10"
     gridtolerance="10"
     guidetolerance="10"
     inkscape:pageopacity="0"
     inkscape:pageshadow="2"
     inkscape:window-width="1366"
     inkscape:window-height="721"
     id="namedview41"
     showgrid="false"
     inkscape:zoom="0.59"
     inkscape:cx="200"
     inkscape:cy="200"
     inkscape:window-x="-4"
     inkscape:window-y="-4"
     inkscape:window-maximized="1"
     inkscape:current-layer="g3" /><g
     id="g3"><path
       inkscape:connector-curvature="0"
       id="path7"
       d="M 199.992,0 C 89.717,0 0,89.72 0,200 0,310.28 89.717,400 199.992,400 310.273,400 400,310.28 400,200 400,89.72 310.273,0 199.992,0 Z m 0,373.77 C 104.178,373.77 26.23,295.816 26.23,200 c 0,-95.817 77.947,-173.769 173.762,-173.769 95.822,0 173.776,77.953 173.776,173.769 0.001,95.816 -77.954,173.77 -173.776,173.77 z"
       style="fill:#800000" /><path
       inkscape:connector-curvature="0"
       id="path9"
       d="m 265.473,134.529 c -5.123,-5.123 -13.422,-5.123 -18.545,0 L 200,181.454 153.072,134.529 c -5.123,-5.123 -13.424,-5.123 -18.547,0 -5.123,5.12 -5.123,13.426 0,18.546 L 181.447,200 134.519,246.926 c -5.123,5.119 -5.123,13.422 0,18.547 2.561,2.562 5.918,3.842 9.273,3.842 3.355,0 6.711,-1.28 9.271,-3.842 l 46.937,-46.93 46.928,46.932 c 2.562,2.562 5.916,3.842 9.271,3.842 3.354,0 6.711,-1.279 9.272,-3.842 5.123,-5.119 5.123,-13.426 0,-18.545 L 218.545,200 265.473,153.075 c 5.123,-5.12 5.123,-13.423 0,-18.546 z"
       style="fill:#800000" /></g><g
     id="g11" /><g
     id="g13" /><g
     id="g15" /><g
     id="g17" /><g
     id="g19" /><g
     id="g21" /><g
     id="g23" /><g
     id="g25" /><g
     id="g27" /><g
     id="g29" /><g
     id="g31" /><g
     id="g33" /><g
     id="g35" /><g
     id="g37" /><g
     id="g39" /></svg>