<?xml version="1.0" encoding="UTF-8" standalone="no"?>
<!-- Generator: Adobe Illustrator 16.0.0, SVG Export Plug-In . SVG Version: 6.00 Build 0)  -->

<svg
   xmlns:dc="http://purl.org/dc/elements/1.1/"
   xmlns:cc="http://creativecommons.org/ns#"
   xmlns:rdf="http://www.w3.org/1999/02/22-rdf-syntax-ns#"
   xmlns:svg="http://www.w3.org/2000/svg"
   xmlns="http://www.w3.org/2000/svg"
   xmlns:sodipodi="http://sodipodi.sourceforge.net/DTD/sodipodi-0.dtd"
   xmlns:inkscape="http://www.inkscape.org/namespaces/inkscape"
   version="1.1"
   id="Capa_1"
   x="0px"
   y="0px"
   width="393.85px"
   height="393.85px"
   viewBox="0 0 393.85 393.85"
   style="enable-background:new 0 0 393.85 393.85;"
   xml:space="preserve"
   inkscape:version="0.91 r13725"
   sodipodi:docname="download.svg"
   inkscape:export-filename="C:\D\TCIABrowser\TCIABrowser\Resources\Icons\download.png"
   inkscape:export-xdpi="16.886801"
   inkscape:export-ydpi="16.886801"><metadata
     id="metadata41"><rdf:RDF><cc:Work
         rdf:about=""><dc:format>image/svg+xml</dc:format><dc:type
           rdf:resource="http://purl.org/dc/dcmitype/StillImage" /></cc:Work></rdf:RDF></metadata><defs
     id="defs39" /><sodipodi:namedview
     pagecolor="#ffffff"
     bordercolor="#666666"
     borderopacity="1"
     objecttolerance="10"
     gridtolerance="10"
     guidetolerance="10"
     inkscape:pageopacity="0"
     inkscape:pageshadow="2"
     inkscape:window-width="1366"
     inkscape:window-height="721"
     id="namedview37"
     showgrid="false"
     inkscape:zoom="0.59921289"
     inkscape:cx="-63.416529"
     inkscape:cy="196.925"
     inkscape:window-x="-4"
     inkscape:window-y="-4"
     inkscape:window-maximized="1"
     inkscape:current-layer="Capa_1" /><g
     id="g3"
     style="fill:#000000"><path
       d="M306.979,144.593c-16.921-26.564-46.168-42.779-78.009-42.779c-4.252,0-8.498,0.291-12.697,0.869   c-17.287-23.797-45.246-38.258-74.926-38.258c-50.474,0-91.635,40.64-92.484,90.917C18.917,171.333,0,202.481,0,236.926   c0,51.004,41.495,92.499,92.499,92.499h208.852c51.004,0,92.499-41.495,92.499-92.499   C393.85,187.81,355.374,147.512,306.979,144.593z M301.351,304.425H92.499C55.28,304.425,25,274.146,25,236.926   c0-27.28,16.258-51.726,41.419-62.278c4.965-2.083,8.04-7.11,7.629-12.479c-0.132-1.721-0.198-3.484-0.198-5.243   c0-37.22,30.279-67.5,67.497-67.5c15.896,0,31.113,5.693,43.077,15.588v119.056l-38.661-38.66c-4.882-4.881-12.797-4.881-17.678,0   c-4.881,4.882-4.881,12.796,0,17.678l60,59.998c2.441,2.44,5.64,3.661,8.839,3.661s6.398-1.221,8.839-3.661l60-60   c4.881-4.882,4.881-12.796,0-17.678c-4.882-4.881-12.796-4.881-17.678,0l-38.66,38.66v-95.121c1.271,0.098,2.569,0.008,3.856-0.299   c5.113-1.217,10.393-1.834,15.688-1.834c25.079,0,47.953,13.786,59.698,35.979c2.211,4.178,6.578,6.772,11.315,6.65   c0.456-0.01,0.909-0.02,1.366-0.02c37.219,0,67.499,30.281,67.499,67.502C368.85,274.146,338.569,304.425,301.351,304.425z"
       id="path5"
       style="fill:#000000" /></g><g
     id="g7" /><g
     id="g9" /><g
     id="g11" /><g
     id="g13" /><g
     id="g15" /><g
     id="g17" /><g
     id="g19" /><g
     id="g21" /><g
     id="g23" /><g
     id="g25" /><g
     id="g27" /><g
     id="g29" /><g
     id="g31" /><g
     id="g33" /><g
     id="g35" /></svg>