<?xml version="1.0" encoding="UTF-8" standalone="no"?>
<!-- Generator: Adobe Illustrator 18.1.1, SVG Export Plug-In . SVG Version: 6.00 Build 0)  -->

<svg
   xmlns:dc="http://purl.org/dc/elements/1.1/"
   xmlns:cc="http://creativecommons.org/ns#"
   xmlns:rdf="http://www.w3.org/1999/02/22-rdf-syntax-ns#"
   xmlns:svg="http://www.w3.org/2000/svg"
   xmlns="http://www.w3.org/2000/svg"
   xmlns:sodipodi="http://sodipodi.sourceforge.net/DTD/sodipodi-0.dtd"
   xmlns:inkscape="http://www.inkscape.org/namespaces/inkscape"
   version="1.1"
   id="Capa_1"
   x="0px"
   y="0px"
   viewBox="0 0 270 270"
   style="enable-background:new 0 0 270 270;"
   xml:space="preserve"
   inkscape:version="0.91 r13725"
   sodipodi:docname="stored.svg"
   inkscape:export-filename="C:\D\TCIABrowser\TCIABrowser\Resources\Icons\stored.png"
   inkscape:export-xdpi="11.25"
   inkscape:export-ydpi="11.25"><metadata
     id="metadata40"><rdf:RDF><cc:Work
         rdf:about=""><dc:format>image/svg+xml</dc:format><dc:type
           rdf:resource="http://purl.org/dc/dcmitype/StillImage" /></cc:Work></rdf:RDF></metadata><defs
     id="defs38" /><sodipodi:namedview
     pagecolor="#ffffff"
     bordercolor="#666666"
     borderopacity="1"
     objecttolerance="10"
     gridtolerance="10"
     guidetolerance="10"
     inkscape:pageopacity="0"
     inkscape:pageshadow="2"
     inkscape:window-width="1366"
     inkscape:window-height="721"
     id="namedview36"
     showgrid="false"
     inkscape:zoom="0.87407407"
     inkscape:cx="-43.474577"
     inkscape:cy="135"
     inkscape:window-x="-4"
     inkscape:window-y="-4"
     inkscape:window-maximized="1"
     inkscape:current-layer="Capa_1" /><path
     inkscape:connector-curvature="0"
     d="M 135,0 C 106.71,0 81.059,5.669 62.053,15.172 43.047,24.675 30,38.491 30,55 l 0,160 c 0,16.509 13.046,30.325 32.053,39.828 C 81.06,264.331 106.71,270 135,270 c 28.29,0 53.941,-5.669 72.947,-15.172 C 226.953,245.325 240,231.509 240,215 L 240,55 C 240,38.491 226.954,24.675 207.947,15.172 188.94,5.669 163.29,0 135,0 Z m 0,10 c 26.939,0 51.288,5.524 68.475,14.117 C 220.662,32.71 230,43.895 230,55 230,66.105 220.661,77.29 203.475,85.883 186.289,94.476 161.939,100 135,100 108.061,100 83.712,94.476 66.525,85.883 49.338,77.29 40,66.105 40,55 40,43.895 49.339,32.71 66.525,24.117 83.711,15.524 108.061,10 135,10 Z m 0,7.5 C 109.077,17.5 85.7,22.915 69.881,30.824 54.042,38.744 47.5,47.798 47.5,55 c -0.02,1.381 1.084,2.516 2.465,2.535 1.381,0.02 2.516,-1.084 2.535,-2.465 0,-0.024 0,-0.047 0,-0.071 0,-3.795 4.698,-12.246 19.615,-19.705 C 86.977,27.864 109.78,22.5 135,22.5 c 1.381,0.02 2.516,-1.084 2.535,-2.465 0.019,-1.381 -1.084,-2.516 -2.465,-2.535 -0.023,0 -0.046,0 -0.07,0 z M 40,78.807 C 45.559,84.983 53.152,90.378 62.053,94.828 81.059,104.331 106.71,110 135,110 c 28.29,0 53.941,-5.669 72.947,-15.172 8.901,-4.45 16.494,-9.846 22.053,-16.021 l 0,29.527 c 0,11.105 -9.339,22.29 -26.525,30.883 -17.186,8.593 -41.536,14.117 -68.475,14.117 -26.939,0 -51.288,-5.524 -68.475,-14.117 C 49.338,130.624 40,119.439 40,108.334 l 0,-29.527 z m 0,53.332 c 5.559,6.175 13.152,11.571 22.053,16.021 19.006,9.503 44.658,15.174 72.947,15.174 28.289,0 53.941,-5.671 72.947,-15.174 8.901,-4.45 16.494,-9.846 22.053,-16.021 l 0,29.527 c 0,11.105 -9.339,22.29 -26.525,30.883 -17.186,8.593 -41.536,14.117 -68.475,14.117 -26.939,0 -51.288,-5.524 -68.475,-14.117 C 49.338,183.956 40,172.771 40,161.666 l 0,-29.527 z m 0,53.334 c 5.559,6.176 13.152,11.571 22.053,16.021 19.006,9.503 44.658,15.172 72.947,15.172 28.289,0 53.941,-5.669 72.947,-15.172 8.901,-4.45 16.494,-9.846 22.053,-16.021 L 230,215 c 0,11.105 -9.339,22.29 -26.525,30.883 C 186.288,254.476 161.939,260 135,260 108.061,260 83.712,254.476 66.525,245.883 49.339,237.29 40,226.105 40,215 l 0,-29.527 z"
     id="path23484"
     style="fill:#1a1a1a" /><g
     id="g6" /><g
     id="g8" /><g
     id="g10" /><g
     id="g12" /><g
     id="g14" /><g
     id="g16" /><g
     id="g18" /><g
     id="g20" /><g
     id="g22" /><g
     id="g24" /><g
     id="g26" /><g
     id="g28" /><g
     id="g30" /><g
     id="g32" /><g
     id="g34" /></svg>